<svg id="Layer_1" data-name="Layer 1" xmlns="http://www.w3.org/2000/svg" xmlns:xlink="http://www.w3.org/1999/xlink" viewBox="0 0 223.33 223.33"><defs><style>.cls-1,.cls-2,.cls-3,.cls-4{fill:none;stroke-miterlimit:10;stroke-width:6px;}.cls-1,.cls-2{opacity:0.9;}.cls-1{stroke:url(#Gold_Dust);}.cls-2{stroke:url(#Gold_Dust-2);}.cls-3{stroke:url(#Gold_Dust-3);}.cls-4{stroke:url(#Gold_Dust-4);}</style><linearGradient id="Gold_Dust" y1="111.66" x2="223.33" y2="111.66" gradientUnits="userSpaceOnUse"><stop offset="0" stop-color="#ff7300"/><stop offset="0.18" stop-color="#f97c01"/><stop offset="0.47" stop-color="#ea9602"/><stop offset="0.55" stop-color="#e59e03"/><stop offset="0.87" stop-color="#e5c500"/><stop offset="0.99" stop-color="#bf6f00"/></linearGradient><linearGradient id="Gold_Dust-2" x1="10.6" y1="111.66" x2="212.73" y2="111.66" xlink:href="#Gold_Dust"/><linearGradient id="Gold_Dust-3" x1="178.52" y1="212.06" x2="265.93" y2="212.06" xlink:href="#Gold_Dust"/><linearGradient id="Gold_Dust-4" x1="230.8" y1="238.95" x2="323.71" y2="238.95" xlink:href="#Gold_Dust"/></defs><title>HA Logo</title><circle class="cls-1" cx="111.66" cy="111.66" r="108.66"/><circle class="cls-2" cx="111.66" cy="111.66" r="98.07"/><path class="cls-3" d="M255.73,230.61c0,3,.4,4.5,3.1,6,2,1.1,3.4,1.7,3.4,4.2s-.2,7.4-19.9,7.4c-4.4,0-17.2-.1-17.2-6.8-.41-7.7,7,.8,7-19.5,0-5.4-1.2-5.2-6.2-5.2-14,0-12.71.4-12.71,9.4,0,13.7,6.2,8.2,6.2,14.7,0,7-14.6,7.4-19.4,7.4-4.6,0-18.5-.4-18.5-7.2,0-2.1,1.5-3.4,3.2-4.2,3.6-1.7,4.9-1.4,4.9-22.3,0-26.6-.4-24.4-4.1-26.4-1.5-.8-3.3-1.7-3.3-3.7,0-7.7,16.7-8.5,22.3-8.5,4.2,0,15.81.5,15.81,6.5,0,3.1-1.71,4.2-4,5.6-2.5,1.4-3.1,2.6-3.1,11.5,0,5.6,2.6,4.9,7.4,4.9h5.1c6.61,0,6.41-1,6.41-4.1,0-10.9-1.7-11.6-3-12.3-1.9-1.1-3.7-2-3.7-4.6,0-1.9-.4-7.5,19.5-7.5,4.7,0,18,.09,18,7.1a5,5,0,0,1-3.1,4.7c-3,1.3-4.1,1-4.1,16.9Z" transform="translate(-138.34 -113.15)"/><path class="cls-4" d="M254.21,238.2c3.1-6.9,7.2-15.7,7.2-23.6,0-6.9,3.2-12.11,12.1-12.11,8.7,0,14.2,8.91,18.1,15.51,1.7,2.9,16.8,33.5,20.4,41.7,3.3,7.6,8.7,3,8.7,8.7,0,7.3-14.2,7-19.2,7-14.3,0-22.9-.1-22.9-6.3,0-4.8,6.1-3,6.1-6.5,0-4.5-2.5-4.9-18.6-4.9-5.2,0-8.3.2-8.3,5.1,0,3.9,6.4,1.3,6.4,6.5,0,6-10.8,6.1-14.8,6.1-14.3,0-15.61-2.7-15.61-5.9,0-4.7,5.41-3.3,8.31-6.9,2.2-2.7,4.3-7.5,5.8-10.7Zm21,7.2c1,0,4,.2,4-1.3s-2.9-6.7-3.7-8.1c-.9-1.6-2.6-5.3-4.8-5.3-2.4,0-4.1,6-4.5,7.1s-2.1,5-2.1,6.2c0,1.7,2.5,1.4,3.6,1.4Z" transform="translate(-138.34 -113.15)"/></svg>